<svg width="20" height="20" viewBox="0 0 20 20" fill="currentColor" xmlns="http://www.w3.org/2000/svg">
<path d="M4.0477 1.66667C2.73446 1.66667 1.66675 2.73438 1.66675 4.04762V15.9524C1.66675 17.2656 2.73446 18.3333 4.0477 18.3333H15.9525C17.2657 18.3333 18.3334 17.2656 18.3334 15.9524V4.04762C18.3334 2.73438 17.2657 1.66667 15.9525 1.66667H4.0477ZM5.23818 5.53572C5.23818 5.04092 5.63624 4.64286 6.13103 4.64286C11.2278 4.64286 15.3572 8.77232 15.3572 13.8691C15.3572 14.3638 14.9592 14.7619 14.4644 14.7619C13.9696 14.7619 13.5715 14.3638 13.5715 13.8691C13.5715 9.75819 10.2419 6.42857 6.13103 6.42857C5.63624 6.42857 5.23818 6.03051 5.23818 5.53572ZM5.23818 9.10714C5.23818 8.61235 5.63624 8.21429 6.13103 8.21429C9.25231 8.21429 11.7858 10.7478 11.7858 13.8691C11.7858 14.3638 11.3877 14.7619 10.8929 14.7619C10.3981 14.7619 10.0001 14.3638 10.0001 13.8691C10.0001 11.7336 8.26645 10 6.13103 10C5.63624 10 5.23818 9.60194 5.23818 9.10714ZM7.61913 13.5714C7.61913 14.2299 7.08714 14.7619 6.42865 14.7619C5.77017 14.7619 5.23818 14.2299 5.23818 13.5714C5.23818 12.9129 5.77017 12.381 6.42865 12.381C7.08714 12.381 7.61913 12.9129 7.61913 13.5714Z" fill="#637381"/>
</svg>
