<svg width="18" height="14" viewBox="0 0 18 14" fill="currentColor" xmlns="http://www.w3.org/2000/svg">
<path d="M16.5241 13.6667H12.9329C13.0736 13.4219 13.1569 13.138 13.1569 12.8333V12.625C13.1569 11.0443 12.4512 9.625 11.3392 8.67188C11.4017 8.66928 11.4616 8.66667 11.5241 8.66667H13.123C15.4434 8.66667 17.3236 10.5469 17.3236 12.8672C17.3236 13.3099 16.9642 13.6667 16.5241 13.6667ZM11.9069 7C11.0996 7 10.3704 6.67188 9.8418 6.14323C10.3548 5.45053 10.6569 4.59376 10.6569 3.66667C10.6569 2.96876 10.485 2.3099 10.1803 1.73178C10.6647 1.37761 11.2611 1.16667 11.9069 1.16667C13.5189 1.16667 14.8236 2.47136 14.8236 4.08334C14.8236 5.69532 13.5189 7 11.9069 7Z" fill="#637381"/>
<path d="M9.84171 3.66667C9.84171 5.50781 8.34953 7 6.50838 7C4.66724 7 3.17505 5.50781 3.17505 3.66667C3.17505 1.82552 4.66724 0.333336 6.50838 0.333336C8.34953 0.333336 9.84171 1.82552 9.84171 3.66667ZM0.675049 12.8932C0.675049 10.3281 2.75317 8.25 5.31828 8.25H7.69849C10.2636 8.25 12.3417 10.3281 12.3417 12.8932C12.3417 13.3203 11.9954 13.6667 11.5683 13.6667H1.44849C1.0214 13.6667 0.675049 13.3203 0.675049 12.8932Z" fill="#637381"/>
</svg>
