<svg width="20" height="20" viewBox="0 0 20 20" fill="currentColor" xmlns="http://www.w3.org/2000/svg">
<path d="M10.0001 3.22917C6.25985 3.22917 3.22925 6.25977 3.22925 10V11.3021C3.22925 11.735 2.88094 12.0833 2.448 12.0833C2.01506 12.0833 1.66675 11.735 1.66675 11.3021V10C1.66675 5.39714 5.39722 1.66667 10.0001 1.66667C14.6029 1.66667 18.3334 5.39714 18.3334 10V14.6908C18.3334 16.2728 17.0509 17.5553 15.4656 17.5553L11.8751 17.5521C11.6049 18.0176 11.1003 18.3333 10.5209 18.3333H9.47925C8.61662 18.3333 7.91675 17.6335 7.91675 16.7708C7.91675 15.9082 8.61662 15.2083 9.47925 15.2083H10.5209C11.1003 15.2083 11.6049 15.5241 11.8751 15.9896L15.4688 15.9928C16.1882 15.9928 16.7709 15.4102 16.7709 14.6908V10C16.7709 6.25977 13.7403 3.22917 10.0001 3.22917ZM6.35425 8.4375H6.87508C7.45125 8.4375 7.91675 8.903 7.91675 9.47917V13.125C7.91675 13.7012 7.45125 14.1667 6.87508 14.1667H6.35425C5.20516 14.1667 4.27092 13.2324 4.27092 12.0833V10.5208C4.27092 9.37175 5.20516 8.4375 6.35425 8.4375ZM13.6459 8.4375C14.795 8.4375 15.7292 9.37175 15.7292 10.5208V12.0833C15.7292 13.2324 14.795 14.1667 13.6459 14.1667H13.1251C12.5489 14.1667 12.0834 13.7012 12.0834 13.125V9.47917C12.0834 8.903 12.5489 8.4375 13.1251 8.4375H13.6459Z" fill="#637381"/>
<path d="M10.0001 3.22917C6.25985 3.22917 3.22925 6.25977 3.22925 10V11.3021C3.22925 11.735 2.88094 12.0833 2.448 12.0833C2.01506 12.0833 1.66675 11.735 1.66675 11.3021V10C1.66675 5.39714 5.39722 1.66667 10.0001 1.66667C14.6029 1.66667 18.3334 5.39714 18.3334 10V14.6908C18.3334 16.2728 17.0509 17.5553 15.4656 17.5553L11.8751 17.5521C11.6049 18.0176 11.1003 18.3333 10.5209 18.3333H9.47925C8.61662 18.3333 7.91675 17.6335 7.91675 16.7708C7.91675 15.9082 8.61662 15.2083 9.47925 15.2083H10.5209C11.1003 15.2083 11.6049 15.5241 11.8751 15.9896L15.4688 15.9928C16.1882 15.9928 16.7709 15.4102 16.7709 14.6908V10C16.7709 6.25977 13.7403 3.22917 10.0001 3.22917Z" fill="#637381"/>
</svg>
