<svg width="20" height="20" viewBox="0 0 20 20" fill="currentColor" xmlns="http://www.w3.org/2000/svg">
<path d="M1.66675 8.91174C1.66675 8.44222 1.86151 7.99704 2.20931 7.68055L8.86998 2.61321C9.50992 2.02891 10.4872 2.02891 11.1272 2.61321L17.7909 7.68054C18.1352 7.99703 18.3334 8.44221 18.3334 8.91173L16.678 16.7104C16.3344 17.4524 15.9302 17.8234 15.0085 17.8234H4.98861C4.06696 17.8234 3.72108 17.8234 3.3192 16.7104L1.66675 8.91174ZM8.32743 12.6296V14.8555C8.32743 15.3181 8.69956 15.5975 9.16213 15.5975H10.8315C11.2941 15.5975 11.6662 15.3181 11.6662 14.8555V12.6296C11.6662 12.1671 11.2941 11.8877 10.8315 11.8877H9.16213C8.69956 11.8877 8.32743 12.1671 8.32743 12.6296Z" fill="#637381"/>
</svg>
